<svg id="publicdomainvectors.org" xmlns="http://www.w3.org/2000/svg" viewBox="0 0 660 660"><defs><style>.cls-1{fill:#332d2a;}.cls-2{fill:#e68f63;}.cls-3,.cls-5{fill:#f29d72;}.cls-3,.cls-6{fill-rule:evenodd;}.cls-4,.cls-6{fill:#f5b290;}</style></defs><rect class="cls-1" x="1.34" y="0.34" width="658.66" height="658.66"/><rect class="cls-2" x="175.95" y="112.39" width="96.15" height="127.09"/><rect class="cls-2" x="1.34" y="125.65" width="159.58" height="105.21"/><path class="cls-3" d="M141.47,110.4H176a34.59,34.59,0,0,1,34.48,34.48h0A34.58,34.58,0,0,1,176,179.36h0a34.57,34.57,0,0,1-34.48-34.48Z"/><path class="cls-3" d="M141.47,144.88h40.67V78.13H161.8a20.39,20.39,0,0,0-20.33,20.34Z"/><rect class="cls-4" x="223.08" y="100.68" width="74.24" height="40.67" rx="20.33"/><rect class="cls-5" x="141.47" y="170.52" width="68.96" height="68.96" rx="34.48"/><path class="cls-6" d="M284.15,133.39H242a20.39,20.39,0,0,0-20.33,20.33h0A20.39,20.39,0,0,0,242,174.06h42.11a20.39,20.39,0,0,0,20.33-20.34h0A20.39,20.39,0,0,0,284.15,133.39Z"/><rect class="cls-4" x="223.08" y="167.65" width="74.24" height="40.67" rx="20.33"/><rect class="cls-4" x="223.08" y="198.81" width="64.41" height="40.67" rx="20.33"/><path class="cls-3" d="M235.5,78.13H175.38A20.4,20.4,0,0,0,155,98.47V118.8H255.83V98.47A20.39,20.39,0,0,0,235.5,78.13Z"/><path class="cls-3" d="M235.5,144.88h0a20.39,20.39,0,0,1-20.34-20.33V98.47A20.4,20.4,0,0,1,235.5,78.13h0a20.39,20.39,0,0,1,20.33,20.34v26.08A20.39,20.39,0,0,1,235.5,144.88Z"/><rect class="cls-5" x="246.75" y="437.08" width="142.66" height="40.67" rx="20.33"/><rect class="cls-5" x="244.12" y="469.79" width="159.04" height="40.67" rx="20.33"/><path class="cls-3" d="M369.07,504.05h-102a20.39,20.39,0,0,0-20.33,20.33h0a20.39,20.39,0,0,0,20.33,20.34h102a20.39,20.39,0,0,0,20.33-20.34h0A20.39,20.39,0,0,0,369.07,504.05Z"/><rect class="cls-5" x="246.75" y="535.21" width="123.76" height="40.67" rx="20.33"/><rect class="cls-2" x="175.95" y="437.08" width="96.15" height="138.8"/><rect class="cls-2" x="1.34" y="462.06" width="159.58" height="105.21"/><path class="cls-3" d="M141.47,446.8H176a34.59,34.59,0,0,1,34.48,34.48h0A34.58,34.58,0,0,1,176,515.76h0a34.57,34.57,0,0,1-34.48-34.47Z"/><path class="cls-3" d="M141.47,481.28h40.67V414.54H161.8a20.39,20.39,0,0,0-20.33,20.33Z"/><rect class="cls-5" x="141.47" y="506.92" width="68.96" height="68.96" rx="34.48"/><path class="cls-3" d="M235.5,414.54H175.38A20.39,20.39,0,0,0,155,434.87V455.2H255.83V434.87A20.39,20.39,0,0,0,235.5,414.54Z"/><path class="cls-3" d="M235.5,481.28h0A20.39,20.39,0,0,1,215.16,461V434.87a20.39,20.39,0,0,1,20.34-20.33h0a20.39,20.39,0,0,1,20.33,20.33V461A20.39,20.39,0,0,1,235.5,481.28Z"/><path class="cls-3" d="M297,260.05,419.9,286.11a20.39,20.39,0,0,1,15.67,24.11h0a20.4,20.4,0,0,1-24.11,15.68L288.53,299.83a20.39,20.39,0,0,1-15.67-24.11h0A20.39,20.39,0,0,1,297,260.05Z"/><path class="cls-3" d="M288.35,340.23l138.42-25.75a20.4,20.4,0,0,1,23.71,16.27h0a20.39,20.39,0,0,1-16.27,23.71L295.79,380.21a20.4,20.4,0,0,1-23.71-16.27h0A20.39,20.39,0,0,1,288.35,340.23Z"/><rect class="cls-2" x="389.25" y="279.71" width="96.15" height="138.8"/><rect class="cls-2" x="500.42" y="304.69" width="159.58" height="105.21"/><path class="cls-3" d="M519.87,289.44H485.39a34.58,34.58,0,0,0-34.48,34.48h0a34.59,34.59,0,0,0,34.48,34.48h0a34.58,34.58,0,0,0,34.48-34.48Z"/><path class="cls-3" d="M519.87,323.92H479.2V257.17h20.34a20.39,20.39,0,0,1,20.33,20.33Z"/><rect class="cls-5" x="450.91" y="349.55" width="68.96" height="68.96" rx="34.48"/><rect class="cls-4" x="364.02" y="346.68" width="74.24" height="40.67" rx="20.33"/><rect class="cls-4" x="373.85" y="377.85" width="64.41" height="40.67" rx="20.33"/><path class="cls-3" d="M425.84,257.17H486A20.39,20.39,0,0,1,506.3,277.5v20.34H405.51V277.5A20.39,20.39,0,0,1,425.84,257.17Z"/><path class="cls-3" d="M425.84,323.92h0a20.4,20.4,0,0,0,20.34-20.34V277.5a20.39,20.39,0,0,0-20.34-20.33h0a20.39,20.39,0,0,0-20.33,20.33v26.08A20.39,20.39,0,0,0,425.84,323.92Z"/></svg>